# xmcd
#
# Track frame offsets: 
#        150
#        10205
#        20190
#        29477
#        38180
#        49312
#        59572
#        69107
#        78087
#        87112
#        95802
#        106515
#        116672
#        127545
#        138485
#        149630
#        161887
#
# Disc length: 2292 seconds
#
# Revision: 0
# Processed by: cddbd v1.5.2PL0 Copyright (c) Steve Scherf et al.
# Submitted via: ExactAudioCopy v0.95b3
#
DISCID=e608f211
DTITLE=Roger Miller - A Man Like Me
DYEAR=1900
DGENRE=Country
TTITLE0=You're Forgetting Me
TTITLE1=My Pillow
TTITLE2=Can't Stop Loving You
TTITLE3=Poor Little John
TTITLE4=A Man Like Me
TTITLE5=The Wrong Kind Of Girl
TTITLE6=Sweet Ramona
TTITLE7=Jason Fleming
TTITLE8=Country Girl
TTITLE9=I Ain't Never
TTITLE10=Under Your Spell Again
TTITLE11=Jimmie Brown The Newsboy
TTITLE12=Who Shot Sam
TTITLE13=Playboy
TTITLE14=Hot Rod Lincoln
TTITLE15=I Wish I Could Fall In Love Today
TTITLE16=The Tip Of My Fingers
EXTD=
EXTT0=
EXTT1=
EXTT2=
EXTT3=
EXTT4=
EXTT5=
EXTT6=
EXTT7=
EXTT8=
EXTT9=
EXTT10=
EXTT11=
EXTT12=
EXTT13=
EXTT14=
EXTT15=
EXTT16=
PLAYORDER=
